<svg version="1.1" id="Capa_1" xmlns="http://www.w3.org/2000/svg" xmlns:xlink="http://www.w3.org/1999/xlink" x="0px" y="0px" viewBox="0 0 24 24" style="enable-background:new 0 0 166.942 166.942;" xml:space="preserve" width="24" height="24"><g><path style="fill:#4b0e79;" cx="83.471" cy="83.472" r="83.471" d="M24 12A12 12 0 0 1 12 24A12 12 0 0 1 0 12A12 12 0 0 1 24 12z"/><g><path style="fill:#FF8800;" d="M5.976 10.958c-0.358 0.606 -0.681 1.212 -0.856 1.877h0.102c0.142 -0.218 0.318 -0.408 0.474 -0.598a15.958 15.958 0 0 0 -0.196 0.598h13.488c0.134 -0.504 0.2 -1.016 0.228 -1.545 -0.093 0.332 -0.28 0.663 -0.466 0.947a8.137 8.137 0 0 0 0 -2.605c-0.047 0.284 -0.093 0.616 -0.233 0.9 -0.14 -0.9 -0.28 -1.8 -0.699 -2.605 0.047 0.284 0.093 0.616 0 0.9 -0.233 -0.9 -0.793 -1.658 -1.352 -2.416 0.047 0.284 0.186 0.521 0.233 0.805 -0.56 -0.758 -1.259 -1.421 -2.051 -1.99 0.186 0.237 0.326 0.474 0.466 0.71 -0.793 -0.568 -1.632 -1.042 -2.564 -1.374 0.233 0.237 0.513 0.379 0.746 0.616 -0.932 -0.379 -1.865 -0.568 -2.844 -0.663 0.373 0.047 0.699 0.284 1.072 0.426 -0.979 -0.189 -1.958 -0.095 -2.891 0.047 0.466 0 0.886 0.095 1.352 0.142a9.201 9.201 0 0 0 -2.751 0.568c0.513 -0.047 1.072 -0.142 1.585 -0.142 -0.886 0.237 -1.725 0.521 -2.518 0.995 0.56 -0.237 1.119 -0.379 1.725 -0.426 -0.793 0.284 -1.539 0.663 -2.238 1.184 0.56 -0.332 1.165 -0.474 1.772 -0.616 -0.746 0.332 -1.399 0.805 -2.051 1.279 0.56 -0.284 1.165 -0.568 1.772 -0.758 -0.699 0.379 -1.306 0.9 -1.865 1.421a5.635 5.635 0 0 1 1.678 -0.853c-0.653 0.379 -1.212 0.9 -1.725 1.468 0.466 -0.379 0.979 -0.663 1.492 -0.9a12.838 12.838 0 0 0 -1.585 1.61c0.373 -0.379 0.886 -0.616 1.352 -0.9 -0.56 0.521 -1.072 1.089 -1.445 1.8 0.326 -0.379 0.699 -0.71 1.119 -0.947 -0.466 0.616 -0.932 1.279 -1.259 1.99 0.28 -0.379 0.56 -0.711 0.932 -0.947"/><path style="fill:#FF8800;" d="M7.853 6.938c0.843 0.843 0.858 2.195 0.033 3.019 -0.824 0.824 -2.176 0.809 -3.019 -0.033 -0.843 -0.843 -0.969 -3.954 -0.969 -3.954s3.111 0.126 3.954 0.968"/><path style="fill:#70491A;" d="M6.917 7.427c0.44 0.44 0.448 1.147 0.018 1.578s-1.137 0.423 -1.578 -0.018 -0.506 -2.066 -0.506 -2.066 1.626 0.066 2.066 0.506"/><path style="fill:#FF8800;" d="M16.511 6.938c-0.843 0.843 -0.858 2.195 -0.033 3.019 0.824 0.824 2.176 0.809 3.019 -0.033 0.843 -0.843 0.969 -3.954 0.969 -3.954s-3.111 0.126 -3.954 0.968"/><path style="fill:#70491A;" d="M17.446 7.427c-0.44 0.44 -0.448 1.147 -0.018 1.578s1.137 0.423 1.578 -0.018 0.506 -2.066 0.506 -2.066 -1.626 0.066 -2.066 0.506"/><path style="fill:#FEFEFD;" cx="84.295" cy="91.424" rx="57.264" ry="47.797" d="M20.351 13.143A8.232 6.871 0 0 1 12.118 20.015A8.232 6.871 0 0 1 3.886 13.143A8.232 6.871 0 0 1 20.351 13.143z"/><path style="fill:#FF8800;" d="M20.349 13.118c0 -0.024 0.002 -0.047 0.002 -0.07 0 -3.795 -3.686 -6.871 -8.232 -6.871 -4.546 0 -8.232 3.076 -8.232 6.871 0 0.024 0.002 0.047 0.002 0.07z"/><path cx="59.271" cy="84.697" rx="4.824" ry="4.933" d="M9.214 12.176A0.694 0.709 0 0 1 8.521 12.885A0.694 0.709 0 0 1 7.827 12.176A0.694 0.709 0 0 1 9.214 12.176z"/><path cx="108.17" cy="84.697" rx="4.824" ry="4.933" d="M16.244 12.176A0.694 0.709 0 0 1 15.551 12.885A0.694 0.709 0 0 1 14.857 12.176A0.694 0.709 0 0 1 16.244 12.176z"/><path style="fill:#FF8800;" d="M13.639 12.348 12.118 13.976 10.598 12.348s-4.477 1.92 -3.142 4.299c1.137 2.026 2.948 1.907 3.351 1.671 0.339 -0.199 1.051 -0.717 1.311 -2.034 0.26 1.317 0.973 1.835 1.311 2.034 0.403 0.236 2.214 0.355 3.351 -1.671 1.335 -2.38 -3.142 -4.299 -3.142 -4.299"/><path style="fill:#70491A;" d="M13.828 13.472c0 0.352 -0.766 1.4 -1.71 1.4S10.408 13.824 10.408 13.472c0 -0.352 0.766 -0.637 1.71 -0.637 0.945 0 1.71 0.285 1.71 0.637"/><path style="fill:#70491A;" d="M10.023 13.659a11.932 11.932 0 0 0 -4.427 0.736c-0.129 0.048 -0.073 0.256 0.057 0.208a11.76 11.76 0 0 1 4.37 -0.728c0.139 0.003 0.139 -0.212 0 -0.215"/><path style="fill:#70491A;" d="M10.284 14.626c-1.512 0.252 -2.915 0.893 -4.101 1.863 -0.108 0.088 0.046 0.239 0.152 0.152 1.157 -0.945 2.533 -1.562 4.006 -1.807 0.137 -0.023 0.078 -0.23 -0.057 -0.208"/><path style="fill:#70491A;" d="M9.75 15.682c-1.16 0.882 -2.106 1.995 -2.782 3.287 -0.064 0.123 0.122 0.232 0.186 0.109 0.658 -1.257 1.575 -2.351 2.705 -3.21 0.109 -0.083 0.002 -0.27 -0.109 -0.186"/><path style="fill:#70491A;" d="M14.214 13.659a11.932 11.932 0 0 1 4.427 0.736c0.129 0.048 0.073 0.256 -0.057 0.208a11.76 11.76 0 0 0 -4.37 -0.728c-0.139 0.003 -0.139 -0.212 0 -0.215"/><path style="fill:#70491A;" d="M13.953 14.626c1.512 0.252 2.915 0.893 4.101 1.863 0.108 0.088 -0.046 0.239 -0.152 0.152 -1.157 -0.945 -2.533 -1.562 -4.006 -1.807 -0.137 -0.023 -0.079 -0.23 0.057 -0.208"/><path style="fill:#70491A;" d="M14.487 15.682c1.16 0.882 2.106 1.995 2.782 3.287 0.064 0.123 -0.122 0.232 -0.186 0.109 -0.658 -1.257 -1.575 -2.351 -2.705 -3.21 -0.109 -0.083 -0.002 -0.27 0.109 -0.186"/></g></g></svg>